<svg width="36" height="36" viewBox="0 0 36 36" fill="none" xmlns="http://www.w3.org/2000/svg">
<g clip-path="url(#clip0_144_4)">
<rect width="36" height="36" rx="11" fill="#111111"/>
<path d="M18.3041 6.28C19.5201 6.28 20.5975 6.41867 21.5361 6.696C22.4961 6.952 23.3068 7.336 23.9681 7.848C24.6295 8.33867 25.1308 8.94667 25.4721 9.672C25.8135 10.376 25.9841 11.1653 25.9841 12.04C25.9841 13.1067 25.6748 14.056 25.0561 14.888C24.4588 15.6987 23.5735 16.328 22.4001 16.776C21.2268 17.224 19.7761 17.448 18.0481 17.448L20.5441 16.264V17.736L18.3681 16.616C20.2241 16.616 21.7921 16.8613 23.0721 17.352C24.3521 17.8427 25.3228 18.5467 25.9841 19.464C26.6455 20.36 26.9761 21.416 26.9761 22.632C26.9761 23.6133 26.7841 24.4987 26.4001 25.288C26.0375 26.0773 25.4935 26.7493 24.7681 27.304C24.0641 27.8587 23.2001 28.2853 22.1761 28.584C21.1521 28.8613 19.9788 29 18.6561 29H8.73613V27.56H9.08813C9.85613 27.56 10.4961 27.4853 11.0081 27.336C11.5201 27.1867 11.7761 26.8773 11.7761 26.408V8.872C11.7761 8.40267 11.5201 8.09333 11.0081 7.944C10.4961 7.79467 9.85613 7.72 9.08813 7.72H8.73613V6.28H18.3041ZM14.0801 16.232H18.3041C19.4348 16.232 20.3415 16.0613 21.0241 15.72C21.7068 15.3787 22.1975 14.888 22.4961 14.248C22.8161 13.608 22.9761 12.8827 22.9761 12.072C22.9761 11.1973 22.8055 10.4613 22.4641 9.864C22.1441 9.26667 21.6321 8.81867 20.9281 8.52C20.2455 8.2 19.3601 8.04 18.2721 8.04H14.7521V27.24H18.5921C19.8081 27.24 20.8108 27.0693 21.6001 26.728C22.3895 26.3653 22.9655 25.8427 23.3281 25.16C23.7121 24.456 23.9041 23.6027 23.9041 22.6C23.9041 21.704 23.7228 20.904 23.3601 20.2C22.9975 19.496 22.4215 18.952 21.6321 18.568C20.8641 18.1627 19.8508 17.96 18.5921 17.96H14.0801V16.232Z" fill="white"/>
</g>
<defs>
<clipPath id="clip0_144_4">
<rect width="36" height="36" rx="11" fill="white"/>
</clipPath>
</defs>
</svg>



